<svg width="229" height="254" viewBox="0 0 229 254" fill="none" xmlns="http://www.w3.org/2000/svg">
<g filter="url(#filter0_d)">
<circle cx="-1" cy="6" r="6" fill="white"/>
<circle cx="-1" cy="32" r="6" fill="white"/>
<circle cx="-1" cy="58" r="6" fill="white"/>
<circle cx="-1" cy="84" r="6" fill="white"/>
<circle cx="-1" cy="110" r="6" fill="white"/>
<circle cx="-1" cy="136" r="6" fill="white"/>
<circle cx="-1" cy="162" r="6" fill="white"/>
<circle cx="-1" cy="188" r="6" fill="white"/>
<circle cx="-1" cy="214" r="6" fill="white"/>
<circle cx="-1" cy="240" r="6" fill="white"/>
<circle cx="19" cy="6" r="6" fill="white"/>
<circle cx="19" cy="32" r="6" fill="white"/>
<circle cx="19" cy="58" r="6" fill="white"/>
<circle cx="19" cy="84" r="6" fill="white"/>
<circle cx="19" cy="110" r="6" fill="white"/>
<circle cx="19" cy="136" r="6" fill="white"/>
<circle cx="19" cy="162" r="6" fill="white"/>
<circle cx="19" cy="188" r="6" fill="white"/>
<circle cx="19" cy="214" r="6" fill="white"/>
<circle cx="19" cy="240" r="6" fill="white"/>
<circle cx="39" cy="6" r="6" fill="white"/>
<circle cx="39" cy="32" r="6" fill="white"/>
<circle cx="39" cy="58" r="6" fill="white"/>
<circle cx="39" cy="84" r="6" fill="white"/>
<circle cx="39" cy="110" r="6" fill="white"/>
<circle cx="39" cy="136" r="6" fill="white"/>
<circle cx="39" cy="162" r="6" fill="white"/>
<circle cx="39" cy="188" r="6" fill="white"/>
<circle cx="39" cy="214" r="6" fill="white"/>
<circle cx="39" cy="240" r="6" fill="white"/>
<circle cx="59" cy="6" r="6" fill="white"/>
<circle cx="59" cy="32" r="6" fill="white"/>
<circle cx="59" cy="58" r="6" fill="white"/>
<circle cx="59" cy="84" r="6" fill="white"/>
<circle cx="59" cy="110" r="6" fill="white"/>
<circle cx="59" cy="136" r="6" fill="white"/>
<circle cx="59" cy="162" r="6" fill="white"/>
<circle cx="59" cy="188" r="6" fill="white"/>
<circle cx="59" cy="214" r="6" fill="white"/>
<circle cx="59" cy="240" r="6" fill="white"/>
<circle cx="79" cy="6" r="6" fill="white"/>
<circle cx="79" cy="32" r="6" fill="white"/>
<circle cx="79" cy="58" r="6" fill="white"/>
<circle cx="79" cy="84" r="6" fill="white"/>
<circle cx="79" cy="110" r="6" fill="white"/>
<circle cx="79" cy="136" r="6" fill="white"/>
<circle cx="79" cy="162" r="6" fill="white"/>
<circle cx="79" cy="188" r="6" fill="white"/>
<circle cx="79" cy="214" r="6" fill="white"/>
<circle cx="79" cy="240" r="6" fill="white"/>
<circle cx="99" cy="6" r="6" fill="white"/>
<circle cx="99" cy="32" r="6" fill="white"/>
<circle cx="99" cy="58" r="6" fill="white"/>
<circle cx="99" cy="84" r="6" fill="white"/>
<circle cx="99" cy="110" r="6" fill="white"/>
<circle cx="99" cy="136" r="6" fill="white"/>
<circle cx="99" cy="162" r="6" fill="white"/>
<circle cx="99" cy="188" r="6" fill="white"/>
<circle cx="99" cy="214" r="6" fill="white"/>
<circle cx="99" cy="240" r="6" fill="white"/>
<circle cx="119" cy="6" r="6" fill="white"/>
<circle cx="119" cy="32" r="6" fill="white"/>
<circle cx="119" cy="58" r="6" fill="white"/>
<circle cx="119" cy="84" r="6" fill="white"/>
<circle cx="119" cy="110" r="6" fill="white"/>
<circle cx="119" cy="136" r="6" fill="white"/>
<circle cx="119" cy="162" r="6" fill="white"/>
<circle cx="119" cy="188" r="6" fill="white"/>
<circle cx="119" cy="214" r="6" fill="white"/>
<circle cx="119" cy="240" r="6" fill="white"/>
<circle cx="139" cy="6" r="6" fill="white"/>
<circle cx="139" cy="32" r="6" fill="white"/>
<circle cx="139" cy="58" r="6" fill="white"/>
<circle cx="139" cy="84" r="6" fill="white"/>
<circle cx="139" cy="110" r="6" fill="white"/>
<circle cx="139" cy="136" r="6" fill="white"/>
<circle cx="139" cy="162" r="6" fill="white"/>
<circle cx="139" cy="188" r="6" fill="white"/>
<circle cx="139" cy="214" r="6" fill="white"/>
<circle cx="139" cy="240" r="6" fill="white"/>
<circle cx="159" cy="6" r="6" fill="white"/>
<circle cx="159" cy="32" r="6" fill="white"/>
<circle cx="159" cy="58" r="6" fill="white"/>
<circle cx="159" cy="84" r="6" fill="white"/>
<circle cx="159" cy="110" r="6" fill="white"/>
<circle cx="159" cy="136" r="6" fill="white"/>
<circle cx="159" cy="162" r="6" fill="white"/>
<circle cx="159" cy="188" r="6" fill="white"/>
<circle cx="159" cy="214" r="6" fill="white"/>
<circle cx="159" cy="240" r="6" fill="white"/>
<circle cx="179" cy="6" r="6" fill="white"/>
<circle cx="179" cy="32" r="6" fill="white"/>
<circle cx="179" cy="58" r="6" fill="white"/>
<circle cx="179" cy="84" r="6" fill="white"/>
<circle cx="179" cy="110" r="6" fill="white"/>
<circle cx="179" cy="136" r="6" fill="white"/>
<circle cx="179" cy="162" r="6" fill="white"/>
<circle cx="179" cy="188" r="6" fill="white"/>
<circle cx="179" cy="214" r="6" fill="white"/>
<circle cx="179" cy="240" r="6" fill="white"/>
<circle cx="199" cy="6" r="6" fill="white"/>
<circle cx="199" cy="32" r="6" fill="white"/>
<circle cx="199" cy="58" r="6" fill="white"/>
<circle cx="199" cy="84" r="6" fill="white"/>
<circle cx="199" cy="110" r="6" fill="white"/>
<circle cx="199" cy="136" r="6" fill="white"/>
<circle cx="199" cy="162" r="6" fill="white"/>
<circle cx="199" cy="188" r="6" fill="white"/>
<circle cx="199" cy="214" r="6" fill="white"/>
<circle cx="199" cy="240" r="6" fill="white"/>
<circle cx="219" cy="6" r="6" fill="white"/>
<circle cx="219" cy="32" r="6" fill="white"/>
<circle cx="219" cy="58" r="6" fill="white"/>
<circle cx="219" cy="84" r="6" fill="white"/>
<circle cx="219" cy="110" r="6" fill="white"/>
<circle cx="219" cy="136" r="6" fill="white"/>
<circle cx="219" cy="162" r="6" fill="white"/>
<circle cx="219" cy="188" r="6" fill="white"/>
<circle cx="219" cy="214" r="6" fill="white"/>
<circle cx="219" cy="240" r="6" fill="white"/>
</g>
<defs>
<filter id="filter0_d" x="-11" y="0" width="240" height="254" filterUnits="userSpaceOnUse" color-interpolation-filters="sRGB">
<feFlood flood-opacity="0" result="BackgroundImageFix"/>
<feColorMatrix in="SourceAlpha" type="matrix" values="0 0 0 0 0 0 0 0 0 0 0 0 0 0 0 0 0 0 127 0"/>
<feOffset dy="4"/>
<feGaussianBlur stdDeviation="2"/>
<feColorMatrix type="matrix" values="0 0 0 0 0 0 0 0 0 0 0 0 0 0 0 0 0 0 0.25 0"/>
<feBlend mode="normal" in2="BackgroundImageFix" result="effect1_dropShadow"/>
<feBlend mode="normal" in="SourceGraphic" in2="effect1_dropShadow" result="shape"/>
</filter>
</defs>
</svg>
