<svg width="615" height="478" viewBox="0 0 615 478" fill="none" xmlns="http://www.w3.org/2000/svg">
<g clip-path="url(#clip0)">
<path d="M350.184 233.728C364.023 233.728 375.241 222.5 375.241 208.65C375.241 194.801 364.023 183.573 350.184 183.573C336.345 183.573 325.127 194.801 325.127 208.65C325.127 222.5 336.345 233.728 350.184 233.728Z" fill="#E6E6E6"/>
<path d="M411.594 240.876L385.409 214.67C387.416 211.545 388.776 208.049 389.409 204.389C390.041 200.729 389.933 196.979 389.091 193.361C388.249 189.744 386.69 186.332 384.506 183.329C382.323 180.325 379.559 177.791 376.379 175.876C370.39 172.295 363.277 171.096 356.447 172.516C349.617 173.936 343.569 177.871 339.501 183.542C335.758 188.795 333.96 195.189 334.416 201.625C334.873 208.061 337.556 214.137 342.004 218.808C346.451 223.478 352.386 226.453 358.787 227.219C365.189 227.985 371.657 226.496 377.08 223.006L403.265 249.212C404.37 250.317 405.867 250.937 407.429 250.937C408.99 250.936 410.488 250.315 411.592 249.21C412.696 248.105 413.317 246.606 413.317 245.043C413.318 243.481 412.698 241.982 411.594 240.876ZM376.102 213.692C372.857 216.939 368.588 218.96 364.022 219.41C359.455 219.86 354.874 218.712 351.059 216.16C347.244 213.609 344.43 209.813 343.098 205.418C341.766 201.024 341.998 196.303 343.754 192.061C345.51 187.818 348.681 184.316 352.728 182.151C356.775 179.986 361.446 179.293 365.947 180.189C370.447 181.085 374.498 183.514 377.409 187.064C380.32 190.614 381.911 195.064 381.911 199.656C381.914 202.263 381.402 204.845 380.406 207.254C379.409 209.663 377.946 211.85 376.102 213.692Z" fill="#3F3D56"/>
<path d="M601.407 279.531C668.373 353.647 474.251 460.459 317.396 460.459C160.541 460.459 52.0216 377.699 33.3846 279.531C-11.8037 41.5087 418.4 -109.777 317.396 98.6038C170.171 402.343 548.67 221.164 601.407 279.531Z" fill="#E6E6E6"/>
<path d="M571.361 297.072C638.327 371.188 444.205 478 287.35 478C130.495 478 21.9757 395.24 3.33868 297.072C-41.8496 59.0497 388.354 -92.2362 287.35 116.145C140.125 419.884 518.624 238.705 571.361 297.072Z" fill="#3F3D56"/>
<path d="M93.6403 123.304C46.6509 121.233 10.2174 111.089 10.6961 100.21C10.983 93.687 24.2815 88.4419 47.1814 85.82C47.2633 85.81 47.3465 85.8164 47.4259 85.8388C47.5054 85.8611 47.5797 85.899 47.6445 85.9501C47.7093 86.0013 47.7633 86.0648 47.8035 86.137C47.8437 86.2092 47.8692 86.2886 47.8786 86.3707C47.888 86.4528 47.881 86.5359 47.8582 86.6153C47.8353 86.6947 47.797 86.7688 47.7454 86.8333C47.6939 86.8978 47.63 86.9515 47.5576 86.9912C47.4853 87.0309 47.4057 87.0559 47.3237 87.0648C25.7519 89.5349 12.1963 94.5928 11.9468 100.265C11.5139 110.103 48.9501 120.08 93.6953 122.052C138.441 124.024 176.608 117.378 177.041 107.54C177.291 101.844 164.148 95.5957 142.74 91.2338C142.659 91.2176 142.582 91.1856 142.514 91.1396C142.445 91.0937 142.387 91.0347 142.341 90.966C142.296 90.8973 142.264 90.8203 142.248 90.7394C142.232 90.6585 142.233 90.5753 142.249 90.4945C142.266 90.4138 142.298 90.337 142.344 90.2687C142.39 90.2004 142.449 90.1419 142.518 90.0965C142.587 90.0511 142.664 90.0198 142.745 90.0042C142.826 89.9887 142.909 89.9893 142.989 90.006C165.712 94.6359 178.58 101.047 178.292 107.595C177.813 118.474 140.63 125.374 93.6403 123.304Z" fill="#FE0000"/>
<path d="M51.9062 125.126C55.8372 132.599 61.6602 138.909 68.7928 143.423C75.9254 147.936 84.1173 150.496 92.549 150.847C100.981 151.197 109.356 149.325 116.838 145.418C124.32 141.512 130.645 135.707 135.182 128.585C107.381 128.96 79.5804 127.805 51.9062 125.126Z" fill="#FE0000"/>
<path d="M140.38 115.407C142.746 108.306 143.428 100.75 142.371 93.3393C141.315 85.9283 138.55 78.8652 134.294 72.7088C130.039 66.5524 124.41 61.4718 117.853 57.869C111.296 54.2663 103.991 52.2403 96.517 51.9515C89.0426 51.6626 81.6036 53.1188 74.7887 56.2047C67.9739 59.2907 61.9702 63.9217 57.253 69.7313C52.5357 75.5409 49.2343 82.3696 47.61 89.677C45.9858 96.9843 46.0832 104.57 47.8947 111.833C78.439 117.022 109.527 118.224 140.38 115.407Z" fill="#FE0000"/>
<path d="M105.683 83.0693C108.795 83.0693 111.317 80.545 111.317 77.4311C111.317 74.3173 108.795 71.793 105.683 71.793C102.572 71.793 100.05 74.3173 100.05 77.4311C100.05 80.545 102.572 83.0693 105.683 83.0693Z" fill="white"/>
<path d="M76.6892 104.99C81.8749 104.99 86.0787 100.783 86.0787 95.5927C86.0787 90.403 81.8749 86.1958 76.6892 86.1958C71.5036 86.1958 67.2998 90.403 67.2998 95.5927C67.2998 100.783 71.5036 104.99 76.6892 104.99Z" fill="white"/>
<path d="M218.401 95.7848C221.858 95.7848 224.661 92.9801 224.661 89.5203C224.661 86.0606 221.858 83.2559 218.401 83.2559C214.944 83.2559 212.142 86.0606 212.142 89.5203C212.142 92.9801 214.944 95.7848 218.401 95.7848Z" fill="#FE0000"/>
<path d="M76.9335 287.482C79.0078 287.482 80.6893 285.8 80.6893 283.724C80.6893 281.648 79.0078 279.965 76.9335 279.965C74.8593 279.965 73.1777 281.648 73.1777 283.724C73.1777 285.8 74.8593 287.482 76.9335 287.482Z" fill="#E6E6E6"/>
<path d="M339.838 416.534C341.912 416.534 343.594 414.851 343.594 412.775C343.594 410.699 341.912 409.017 339.838 409.017C337.764 409.017 336.082 410.699 336.082 412.775C336.082 414.851 337.764 416.534 339.838 416.534Z" fill="#E6E6E6"/>
<path d="M95.0869 214.813C96.1241 214.813 96.9648 213.972 96.9648 212.934C96.9648 211.896 96.1241 211.054 95.0869 211.054C94.0498 211.054 93.209 211.896 93.209 212.934C93.209 213.972 94.0498 214.813 95.0869 214.813Z" fill="#E6E6E6"/>
<path d="M250.325 355.141C251.362 355.141 252.203 354.299 252.203 353.261C252.203 352.223 251.362 351.382 250.325 351.382C249.288 351.382 248.447 352.223 248.447 353.261C248.447 354.299 249.288 355.141 250.325 355.141Z" fill="#E6E6E6"/>
<path d="M532.634 336.973C533.671 336.973 534.512 336.132 534.512 335.094C534.512 334.056 533.671 333.214 532.634 333.214C531.597 333.214 530.756 334.056 530.756 335.094C530.756 336.132 531.597 336.973 532.634 336.973Z" fill="#E6E6E6"/>
<path d="M444.374 392.729C445.411 392.729 446.252 391.887 446.252 390.849C446.252 389.811 445.411 388.97 444.374 388.97C443.337 388.97 442.496 389.811 442.496 390.849C442.496 391.887 443.337 392.729 444.374 392.729Z" fill="#E6E6E6"/>
<path d="M352.357 325.07C353.395 325.07 354.235 324.229 354.235 323.191C354.235 322.153 353.395 321.312 352.357 321.312C351.32 321.312 350.479 322.153 350.479 323.191C350.479 324.229 351.32 325.07 352.357 325.07Z" fill="#E6E6E6"/>
<path d="M233.424 139.637C234.461 139.637 235.302 138.796 235.302 137.758C235.302 136.72 234.461 135.878 233.424 135.878C232.387 135.878 231.546 136.72 231.546 137.758C231.546 138.796 232.387 139.637 233.424 139.637Z" fill="#E6E6E6"/>
<path d="M248.447 46.921C249.484 46.921 250.325 46.0795 250.325 45.0415C250.325 44.0036 249.484 43.1621 248.447 43.1621C247.41 43.1621 246.569 44.0036 246.569 45.0415C246.569 46.0795 247.41 46.921 248.447 46.921Z" fill="#E6E6E6"/>
<path d="M239.684 437.207C240.721 437.207 241.561 436.366 241.561 435.328C241.561 434.29 240.721 433.448 239.684 433.448C238.646 433.448 237.806 434.29 237.806 435.328C237.806 436.366 238.646 437.207 239.684 437.207Z" fill="#E6E6E6"/>
<path d="M147.042 397.74C148.079 397.74 148.92 396.899 148.92 395.861C148.92 394.823 148.079 393.981 147.042 393.981C146.005 393.981 145.164 394.823 145.164 395.861C145.164 396.899 146.005 397.74 147.042 397.74Z" fill="#E6E6E6"/>
<path d="M440.618 330.082C441.655 330.082 442.496 329.241 442.496 328.203C442.496 327.165 441.655 326.323 440.618 326.323C439.581 326.323 438.74 327.165 438.74 328.203C438.74 329.241 439.581 330.082 440.618 330.082Z" fill="#E6E6E6"/>
<path d="M92.8768 146.466C95.9882 146.466 98.5105 143.942 98.5105 140.828C98.5105 137.714 95.9882 135.19 92.8768 135.19C89.7654 135.19 87.2432 137.714 87.2432 140.828C87.2432 143.942 89.7654 146.466 92.8768 146.466Z" fill="white"/>
<path d="M220.279 227.342C220.279 244.182 194.264 283.421 186.662 294.528C186.432 294.864 186.124 295.139 185.765 295.329C185.406 295.518 185.005 295.618 184.599 295.618C184.192 295.618 183.792 295.518 183.433 295.329C183.073 295.139 182.765 294.864 182.536 294.528C174.934 283.421 148.919 244.182 148.919 227.342C148.919 222.653 149.842 218.009 151.635 213.677C153.428 209.345 156.056 205.408 159.369 202.093C162.683 198.777 166.616 196.146 170.945 194.352C175.274 192.557 179.913 191.634 184.599 191.634C189.284 191.634 193.924 192.557 198.253 194.352C202.582 196.146 206.515 198.777 209.828 202.093C213.141 205.408 215.77 209.345 217.563 213.677C219.356 218.009 220.279 222.653 220.279 227.342Z" fill="white"/>
<path d="M184.599 243.004C194.625 243.004 202.752 234.87 202.752 224.836C202.752 214.803 194.625 206.669 184.599 206.669C174.574 206.669 166.446 214.803 166.446 224.836C166.446 234.87 174.574 243.004 184.599 243.004Z" fill="#FE0000"/>
<path d="M184.286 315.047C195.867 315.047 205.256 313.224 205.256 310.975C205.256 308.726 195.867 306.903 184.286 306.903C172.705 306.903 163.316 308.726 163.316 310.975C163.316 313.224 172.705 315.047 184.286 315.047Z" fill="white"/>
<path d="M511.319 199.165C511.161 199.473 511.026 199.793 510.918 200.122L481.008 208.44L475.617 203.161L466.594 210.26L475.228 220.534C475.926 221.364 476.874 221.945 477.929 222.19C478.985 222.435 480.092 222.331 481.083 221.893L513.393 207.619C514.489 208.38 515.791 208.79 517.125 208.793C518.459 208.796 519.763 208.392 520.863 207.635C521.962 206.879 522.805 205.805 523.28 204.557C523.755 203.309 523.839 201.946 523.521 200.649C523.203 199.352 522.498 198.183 521.499 197.297C520.501 196.411 519.257 195.85 517.932 195.689C516.608 195.528 515.266 195.774 514.084 196.395C512.903 197.016 511.939 197.982 511.319 199.165H511.319Z" fill="#FFB8B8"/>
<path d="M479.954 208.927L468.727 217.673C468.408 217.921 468.039 218.098 467.645 218.192C467.251 218.285 466.841 218.292 466.444 218.212C466.047 218.133 465.672 217.968 465.345 217.731C465.017 217.493 464.744 217.188 464.545 216.835L457.567 204.476C456.304 202.834 455.744 200.756 456.009 198.701C456.273 196.645 457.342 194.778 458.98 193.509C460.619 192.241 462.693 191.675 464.748 191.934C466.802 192.194 468.671 193.259 469.942 194.895L480.169 204.664C480.462 204.944 480.691 205.283 480.841 205.66C480.991 206.036 481.058 206.44 481.037 206.845C481.017 207.25 480.909 207.645 480.722 208.004C480.536 208.364 480.273 208.679 479.954 208.927V208.927Z" fill="#FE0000"/>
<path d="M514.188 195.028L525.573 200.154C526.05 200.369 526.422 200.765 526.607 201.254C526.792 201.743 526.776 202.286 526.562 202.763L525.214 205.761C525.372 205.833 525.496 205.965 525.558 206.128C525.619 206.291 525.614 206.472 525.543 206.631L525.004 207.83C524.932 207.989 524.8 208.113 524.638 208.175C524.475 208.236 524.294 208.231 524.135 208.16L523.596 209.36C523.755 209.432 523.878 209.563 523.94 209.726C524.002 209.889 523.997 210.07 523.926 210.229L523.387 211.428C523.315 211.587 523.183 211.711 523.02 211.773C522.857 211.835 522.677 211.829 522.518 211.758L515.239 227.95C515.024 228.427 514.629 228.799 514.14 228.985C513.652 229.171 513.109 229.154 512.632 228.94L501.247 223.813C500.771 223.599 500.399 223.203 500.213 222.714C500.028 222.225 500.044 221.682 500.259 221.205L511.581 196.018C511.796 195.541 512.191 195.168 512.68 194.983C513.168 194.797 513.711 194.814 514.188 195.028Z" fill="#3F3D56"/>
<path d="M503.315 222.218L512.448 226.335C512.905 226.539 513.426 226.555 513.894 226.377C514.363 226.2 514.743 225.844 514.951 225.388L519.17 215.997L520.635 212.742L524.452 204.246C524.656 203.789 524.671 203.27 524.494 202.802C524.317 202.333 523.962 201.954 523.506 201.747L520.635 200.452L514.366 197.631C513.909 197.426 513.389 197.412 512.921 197.591C512.453 197.769 512.075 198.127 511.87 198.584L508.177 206.798L503.972 216.149L502.369 219.719C502.164 220.176 502.149 220.696 502.326 221.164C502.503 221.633 502.859 222.012 503.315 222.218Z" fill="#F2F2F2"/>
<path d="M484.23 338.567L491.904 338.567L495.555 308.942L484.229 308.943L484.23 338.567Z" fill="#FFB8B8"/>
<path d="M482.272 336.06L497.386 336.06H497.386C498.651 336.06 499.903 336.309 501.072 336.793C502.24 337.278 503.302 337.988 504.197 338.883C505.091 339.778 505.8 340.84 506.284 342.01C506.768 343.179 507.018 344.433 507.017 345.698V346.012L482.273 346.013L482.272 336.06Z" fill="#2F2E41"/>
<path d="M504.261 336.688L511.935 336.688L515.587 307.063L504.26 307.064L504.261 336.688Z" fill="#FFB8B8"/>
<path d="M502.304 334.18L517.417 334.18H517.417C518.682 334.18 519.935 334.429 521.103 334.913C522.272 335.398 523.334 336.108 524.228 337.003C525.122 337.898 525.832 338.96 526.316 340.13C526.8 341.299 527.049 342.553 527.049 343.819V344.132L502.304 344.133L502.304 334.18Z" fill="#2F2E41"/>
<path d="M449.807 269.052C451.442 273.903 454.543 278.125 458.682 281.134C462.82 284.143 467.79 285.79 472.905 285.848L473.293 285.854C477.255 285.967 481.906 284.689 486.47 282.853C495.483 279.226 504.14 273.419 506.438 271.821L502.544 309.277L500.967 324.463C500.927 324.856 500.97 325.253 501.093 325.628C501.215 326.003 501.415 326.349 501.679 326.642C501.944 326.935 502.266 327.17 502.626 327.331C502.987 327.492 503.377 327.575 503.771 327.576H513.492C514.116 327.577 514.722 327.37 515.215 326.99C515.709 326.609 516.063 326.075 516.221 325.471L532.271 264.297C532.753 262.466 532.791 260.547 532.384 258.698C531.977 256.849 531.136 255.124 529.93 253.665C528.724 252.206 527.189 251.055 525.45 250.308C523.712 249.561 521.821 249.239 519.933 249.369L486.595 251.655L488.923 242.334L459.165 240.354L459.078 240.417C458.364 240.937 457.669 241.482 457.006 242.052C455.347 243.456 453.876 245.069 452.63 246.85C450.401 250.047 448.98 253.737 448.489 257.604C447.997 261.47 448.449 265.399 449.807 269.052Z" fill="#2F2E41"/>
<path d="M449.807 269.052C451.442 273.903 454.543 278.125 458.682 281.134C462.82 284.143 467.79 285.79 472.905 285.847C477.796 283.37 482.516 280.568 487.033 277.459L486.47 282.853L481.562 330.101C481.522 330.494 481.565 330.89 481.688 331.266C481.811 331.641 482.01 331.986 482.275 332.28C482.539 332.573 482.861 332.808 483.222 332.969C483.582 333.13 483.972 333.213 484.366 333.214H494.088C494.711 333.215 495.317 333.008 495.811 332.627C496.304 332.247 496.658 331.713 496.817 331.109L502.544 309.277L512.866 269.935C513.348 268.104 513.387 266.185 512.979 264.336C512.572 262.487 511.731 260.761 510.525 259.302C509.32 257.843 507.784 256.693 506.046 255.946C504.307 255.199 502.416 254.877 500.529 255.007L467.19 257.293L469.519 247.971L452.63 246.85C450.401 250.047 448.98 253.737 448.489 257.603C447.997 261.47 448.449 265.398 449.807 269.052Z" fill="#2F2E41"/>
<path d="M456.963 244.213L456.739 244.186L451.547 218.635C451.502 218.413 447.258 196.375 460.271 184.854L460.497 183.277C460.555 182.873 460.7 182.487 460.922 182.145C461.143 181.803 461.436 181.513 461.781 181.295C462.125 181.077 462.512 180.937 462.916 180.883C463.32 180.83 463.731 180.865 464.12 180.985L476.379 184.791C477.073 185.005 477.657 185.479 478.01 186.115C478.362 186.75 478.455 187.498 478.269 188.2L477.077 192.737C478.73 194.679 498.181 218.116 491.406 236.173L488.371 248.045L456.963 244.213Z" fill="#FE0000"/>
<path d="M507.867 224.272C507.574 224.456 507.296 224.664 507.035 224.892L477.053 216.837L475.093 209.549L463.716 211.072L465.933 224.312C466.112 225.381 466.633 226.364 467.418 227.112C468.202 227.86 469.208 228.333 470.284 228.46L505.358 232.607C505.915 233.82 506.828 234.835 507.976 235.517C509.123 236.198 510.451 236.514 511.782 236.421C513.113 236.329 514.385 235.834 515.428 235.001C516.471 234.168 517.235 233.036 517.62 231.758C518.005 230.479 517.992 229.114 517.582 227.843C517.173 226.572 516.386 225.456 515.327 224.643C514.269 223.83 512.988 223.359 511.655 223.293C510.322 223.227 509.001 223.568 507.867 224.272H507.867Z" fill="#FFB8B8"/>
<path d="M475.898 216.721L461.788 218.54C461.387 218.591 460.979 218.556 460.592 218.436C460.206 218.315 459.849 218.113 459.548 217.843C459.247 217.572 459.007 217.24 458.845 216.869C458.684 216.497 458.604 216.095 458.612 215.69L458.881 201.498C458.628 199.441 459.2 197.367 460.473 195.732C461.745 194.096 463.614 193.032 465.669 192.774C467.723 192.515 469.797 193.082 471.435 194.351C473.072 195.62 474.14 197.487 474.404 199.543L478.249 213.159C478.359 213.549 478.384 213.958 478.321 214.358C478.259 214.758 478.111 215.141 477.888 215.479C477.665 215.817 477.372 216.102 477.028 216.317C476.685 216.531 476.299 216.669 475.898 216.721Z" fill="#FE0000"/>
<path d="M471.926 177.517C480.417 177.517 487.3 170.628 487.3 162.131C487.3 153.633 480.417 146.744 471.926 146.744C463.435 146.744 456.552 153.633 456.552 162.131C456.552 170.628 463.435 177.517 471.926 177.517Z" fill="#FFB8B8"/>
<path d="M471.117 163.416L469.192 159.908C465.546 174.775 471.986 187.08 471.986 187.08L446.99 175.427L447.228 171.292L444.755 174.101L441.201 172.141L440.731 169.46L438.049 170.125L447.841 152.341C457.345 135.418 471.161 141.879 471.161 141.879C493.142 140.833 490.458 162.537 490.458 162.537L471.117 163.416Z" fill="#2F2E41"/>
<path d="M296.105 278.079C299.65 275.804 295.339 262.745 286.477 248.909C277.615 235.074 267.557 225.702 264.012 227.976C260.467 230.25 264.778 243.31 273.64 257.145C282.503 270.981 292.561 280.353 296.105 278.079Z" fill="#3F3D56"/>
</g>
<defs>
<clipPath id="clip0">
<rect width="615" height="478" fill="white"/>
</clipPath>
</defs>
</svg>
