<svg width="838" height="265" viewBox="0 0 838 265" fill="none" xmlns="http://www.w3.org/2000/svg">
<path d="M127.5 75.5C127.5 84.8333 125.25 93.5833 120.75 101.75C116.417 109.917 109.5 116.5 100 121.5C90.6667 126.5 78.8333 129 64.5 129H35.25V196H0.250001V21.5H64.5C78 21.5 89.5 23.8333 99 28.5C108.5 33.1667 115.583 39.5833 120.25 47.75C125.083 55.9167 127.5 65.1667 127.5 75.5ZM63 100.75C72.6667 100.75 79.8333 98.5833 84.5 94.25C89.1667 89.75 91.5 83.5 91.5 75.5C91.5 58.5 82 50 63 50H35.25V100.75H63ZM170.1 41C163.933 41 158.766 39.0833 154.6 35.25C150.6 31.25 148.6 26.3333 148.6 20.5C148.6 14.6667 150.6 9.83332 154.6 5.99999C158.766 1.99999 163.933 -9.77516e-06 170.1 -9.77516e-06C176.266 -9.77516e-06 181.35 1.99999 185.35 5.99999C189.516 9.83332 191.6 14.6667 191.6 20.5C191.6 26.3333 189.516 31.25 185.35 35.25C181.35 39.0833 176.266 41 170.1 41ZM187.35 57.5V196H152.35V57.5H187.35ZM276.18 55.25C286.513 55.25 295.596 57.3333 303.43 61.5C311.263 65.5 317.43 70.75 321.93 77.25V57.5H357.18V197C357.18 209.833 354.596 221.25 349.43 231.25C344.263 241.417 336.513 249.417 326.18 255.25C315.846 261.25 303.346 264.25 288.68 264.25C269.013 264.25 252.846 259.667 240.18 250.5C227.68 241.333 220.596 228.833 218.93 213H253.68C255.513 219.333 259.43 224.333 265.43 228C271.596 231.833 279.013 233.75 287.68 233.75C297.846 233.75 306.096 230.667 312.43 224.5C318.763 218.5 321.93 209.333 321.93 197V175.5C317.43 182 311.18 187.417 303.18 191.75C295.346 196.083 286.346 198.25 276.18 198.25C264.513 198.25 253.846 195.25 244.18 189.25C234.513 183.25 226.846 174.833 221.18 164C215.68 153 212.93 140.417 212.93 126.25C212.93 112.25 215.68 99.8333 221.18 89C226.846 78.1667 234.43 69.8333 243.93 64C253.596 58.1667 264.346 55.25 276.18 55.25ZM321.93 126.75C321.93 118.25 320.263 111 316.93 105C313.596 98.8333 309.096 94.1667 303.43 91C297.763 87.6667 291.68 86 285.18 86C278.68 86 272.68 87.5833 267.18 90.75C261.68 93.9167 257.18 98.5833 253.68 104.75C250.346 110.75 248.68 117.917 248.68 126.25C248.68 134.583 250.346 141.917 253.68 148.25C257.18 154.417 261.68 159.167 267.18 162.5C272.846 165.833 278.846 167.5 285.18 167.5C291.68 167.5 297.763 165.917 303.43 162.75C309.096 159.417 313.596 154.75 316.93 148.75C320.263 142.583 321.93 135.25 321.93 126.75ZM520.113 123.75C520.113 128.75 519.78 133.25 519.113 137.25H417.863C418.697 147.25 422.197 155.083 428.363 160.75C434.53 166.417 442.113 169.25 451.113 169.25C464.113 169.25 473.363 163.667 478.863 152.5H516.613C512.613 165.833 504.947 176.833 493.613 185.5C482.28 194 468.363 198.25 451.863 198.25C438.53 198.25 426.53 195.333 415.863 189.5C405.363 183.5 397.113 175.083 391.113 164.25C385.28 153.417 382.363 140.917 382.363 126.75C382.363 112.417 385.28 99.8333 391.113 89C396.947 78.1667 405.113 69.8333 415.613 64C426.113 58.1667 438.197 55.25 451.863 55.25C465.03 55.25 476.78 58.0833 487.113 63.75C497.613 69.4167 505.697 77.5 511.363 88C517.197 98.3333 520.113 110.25 520.113 123.75ZM483.863 113.75C483.697 104.75 480.447 97.5833 474.113 92.25C467.78 86.75 460.03 84 450.863 84C442.197 84 434.863 86.6667 428.863 92C423.03 97.1667 419.447 104.417 418.113 113.75H483.863ZM607.16 198.25C593.827 198.25 581.827 195.333 571.16 189.5C560.493 183.5 552.077 175.083 545.91 164.25C539.91 153.417 536.91 140.917 536.91 126.75C536.91 112.583 539.993 100.083 546.16 89.25C552.493 78.4167 561.077 70.0833 571.91 64.25C582.743 58.25 594.827 55.25 608.16 55.25C621.493 55.25 633.577 58.25 644.41 64.25C655.243 70.0833 663.744 78.4167 669.91 89.25C676.243 100.083 679.41 112.583 679.41 126.75C679.41 140.917 676.16 153.417 669.66 164.25C663.327 175.083 654.66 183.5 643.66 189.5C632.827 195.333 620.66 198.25 607.16 198.25ZM607.16 167.75C613.493 167.75 619.41 166.25 624.91 163.25C630.577 160.083 635.077 155.417 638.41 149.25C641.743 143.083 643.41 135.583 643.41 126.75C643.41 113.583 639.91 103.5 632.91 96.5C626.077 89.3333 617.66 85.75 607.66 85.75C597.66 85.75 589.243 89.3333 582.41 96.5C575.743 103.5 572.41 113.583 572.41 126.75C572.41 139.917 575.66 150.083 582.16 157.25C588.827 164.25 597.16 167.75 607.16 167.75ZM781.834 55.5C798.334 55.5 811.667 60.75 821.834 71.25C832.001 81.5833 837.084 96.0833 837.084 114.75V196H802.084V119.5C802.084 108.5 799.334 100.083 793.834 94.25C788.334 88.25 780.834 85.25 771.334 85.25C761.667 85.25 754.001 88.25 748.334 94.25C742.834 100.083 740.084 108.5 740.084 119.5V196H705.084V57.5H740.084V74.75C744.751 68.75 750.667 64.0833 757.834 60.75C765.167 57.25 773.167 55.5 781.834 55.5Z" fill="#FE0000" fill-opacity="0.05"/>
</svg>
