<svg width="205" height="205" viewBox="0 0 205 205" fill="none" xmlns="http://www.w3.org/2000/svg">
<path d="M125.743 87.5252C129.077 90.4662 133.012 92.6455 137.274 93.9113C136.38 109.258 121.396 102.465 121.396 102.465V102.461C113.322 106.636 97.9271 107.127 97.0809 97.6073C96.934 96.1019 97.0025 94.5832 97.2844 93.0971L97.2126 93.0851C98.5936 85.0705 96.8534 74.9964 86.2205 69.6839C87.7491 54.4609 94.0994 50.4417 94.0994 50.4417L94.1073 50.4297C102.641 56.2491 115.96 56.2052 115.96 56.2052C113.561 67.5685 116.866 79.7101 125.743 87.5252Z" fill="#FCBAB1"/>
<path d="M110.372 94.2241C109.86 94.2247 109.361 94.0611 108.949 93.7574C108.536 93.4537 108.232 93.0258 108.081 92.5366C107.93 92.0474 107.94 91.5226 108.108 91.0392C108.277 90.5558 108.597 90.1393 109.02 89.8508C110.108 89.1088 119.843 82.6752 126.609 85.2935C126.902 85.407 127.17 85.5772 127.398 85.7944C127.625 86.0115 127.808 86.2713 127.935 86.559C128.062 86.8466 128.131 87.1565 128.139 87.4709C128.146 87.7853 128.091 88.0981 127.978 88.3914C127.864 88.6847 127.694 88.9527 127.477 89.1802C127.26 89.4078 127 89.5903 126.712 89.7174C126.425 89.8445 126.115 89.9137 125.8 89.9211C125.486 89.9284 125.173 89.8738 124.88 89.7602C123.139 89.0861 120.284 89.5391 116.841 91.0351C115.06 91.8148 113.346 92.7422 111.719 93.8074C111.322 94.0791 110.853 94.2244 110.372 94.2241Z" fill="#D19690"/>
<path d="M185.729 77.3633L184.982 79.8579L177.714 104.037C175.238 102.248 172.206 101.399 169.161 101.641C166.116 101.883 163.256 103.201 161.094 105.359L158.38 108.073L148.869 117.584C146.677 119.774 144.019 121.441 141.093 122.461L139.225 123.112C134.234 124.848 129.817 127.927 126.46 132.009C123.104 136.092 120.937 141.02 120.199 146.254L119.863 152.005C119.836 152.48 119.788 152.947 119.724 153.414C118.863 159.029 118.402 164.698 118.343 170.377V182.882C127.785 186.105 138.019 186.174 147.503 183.078L148.114 182.882L150.126 161.928C150.243 160.531 150.667 159.177 151.367 157.963C152.067 156.749 153.027 155.704 154.177 154.903L177.195 139.041C183.426 134.339 187.648 127.453 189.013 119.767L198.217 70.2388C195.619 69.5934 192.872 69.9735 190.546 71.3001C188.221 72.6268 186.495 74.7981 185.729 77.3633Z" fill="#FFC9C0"/>
<path d="M184.954 79.85C180.787 78.7044 175.722 80.7879 174.377 84.895L173.359 88.2876L169.36 101.627C172.34 101.431 175.296 102.284 177.714 104.037L184.982 79.8579L184.954 79.85Z" fill="#F7BAB2"/>
<path d="M169.364 44.5149L169.356 44.5109L149.723 27.1526L149.711 27.1406C142.359 27.4041 133.769 30.3896 127.702 36.3686C127.535 36.5322 127.196 36.652 127.084 36.4484C125.228 32.9919 120.921 34.2532 118.51 37.3066C114.802 42.0044 114.471 48.4623 117.245 50.6616C117.328 50.7284 117.387 50.8197 117.414 50.9222C117.441 51.0248 117.435 51.1334 117.397 51.2323C116.797 52.8529 116.317 54.515 115.96 56.2055C113.561 67.5689 116.866 79.7105 125.743 87.5256C129.077 90.4666 133.012 92.6458 137.274 93.9117C149.415 97.5438 163.509 93.7161 172.884 83.0752C178.66 76.5174 180.959 68.6625 180.875 60.6758L169.364 44.5149Z" fill="#FFC9C0"/>
<path d="M173.359 88.2876L169.36 101.627C166.241 101.816 163.299 103.144 161.094 105.359L158.38 108.073L161.669 96.9448C162.337 94.4358 163.815 92.2178 165.873 90.6356C167.932 89.0534 170.456 88.1957 173.052 88.1958L173.359 88.2876Z" fill="#E5ACA8"/>
<path d="M63.6694 85.314C63.6694 85.314 62.0968 64.7985 78.0701 67.0656C79.8125 67.3281 81.5231 67.7695 83.175 68.3827C84.2158 68.7539 85.2328 69.1884 86.2204 69.6839C96.8533 74.9964 98.5936 85.0705 97.2126 93.0851C97.0569 93.9911 96.8613 94.8692 96.6338 95.7154C95.8841 98.4858 94.2804 100.95 92.0507 102.757C89.8209 104.564 87.0784 105.622 84.2128 105.782C78.4892 106.101 70.3189 105.055 61.9731 98.9125C61.9731 98.9125 56.3892 102.557 49.8713 102.233C49.2047 102.2 48.5549 102.012 47.9733 101.685C47.3917 101.357 46.8943 100.899 46.5203 100.346C46.1463 99.7933 45.906 99.1611 45.8185 98.4994C45.7309 97.8377 45.7984 97.1647 46.0157 96.5336L53.4595 74.9405C55.9407 79.1985 59.4513 82.7654 63.6694 85.314Z" fill="#FFC9C0"/>
<path d="M94.1074 50.4299L94.0994 50.4418C94.0994 50.4418 87.7492 54.4611 86.2205 69.6841C85.2329 69.1886 84.2158 68.7541 83.1751 68.3829C81.5232 67.7697 79.8125 67.3283 78.0702 67.0657C76.5894 54.3294 86.0968 44.8101 86.0968 44.8101C88.3205 46.0002 90.4094 47.4267 92.3272 49.0648C92.8936 49.554 93.488 50.0098 94.1074 50.4299Z" fill="#867AF4"/>
<path d="M85.1269 153.414C85.0631 152.947 85.0152 152.48 84.9872 152.005L84.6519 146.254C83.9136 141.02 81.7472 136.092 78.3906 132.009C75.034 127.927 70.6172 124.848 65.6253 123.112L63.7573 122.461C60.8317 121.441 58.174 119.774 55.9822 117.584L46.4708 108.073L43.7567 105.359C41.5945 103.201 38.7349 101.883 35.6898 101.641C32.6447 101.399 29.6128 102.248 27.1368 104.037L19.8686 79.8579L19.1222 77.3633C18.3553 74.7981 16.63 72.6268 14.3045 71.3001C11.9789 69.9735 9.23172 69.5934 6.6333 70.2388L15.8373 119.767C17.2031 127.453 21.4249 134.339 27.6557 139.041L50.6737 154.903C51.8408 155.716 52.8088 156.782 53.5056 158.022C54.2023 159.262 54.6096 160.644 54.697 162.064L56.2376 182.882L56.6847 183.03C65.996 186.16 76.0644 186.23 85.4183 183.23L86.5079 182.882V170.377C86.4491 164.698 85.9876 159.029 85.1269 153.414Z" fill="#FFC9C0"/>
<path d="M86.0968 44.81C86.0968 44.81 76.5894 54.3293 78.0702 67.0657C62.0969 64.7986 63.6695 85.3141 63.6695 85.3141C59.4514 82.7655 55.9408 79.1986 53.4596 74.9406C49.6319 68.3229 48.6022 60.1487 53.2201 52.4294C62.2446 37.3382 76.4936 39.6172 86.0968 44.81Z" fill="#FF5A81"/>
<path d="M43.1821 96.9448L46.4709 108.073L43.7568 105.359C41.5519 103.144 38.6103 101.816 35.4908 101.627L31.4915 88.2876L31.7988 88.1958C34.3952 88.1957 36.9188 89.0534 38.9774 90.6356C41.036 92.2178 42.5142 94.4358 43.1821 96.9448Z" fill="#E5ACA8"/>
<path d="M31.4912 88.2876L30.4734 84.895C29.1283 80.7879 24.0633 78.7044 19.8963 79.85L19.8684 79.8579L27.1366 104.037C29.5547 102.284 32.5099 101.431 35.4905 101.627L31.4912 88.2876Z" fill="#F7BAB2"/>
<path d="M156.364 84.0967C156.869 84.54 157.231 85.1232 157.404 85.7724C157.578 86.4215 157.555 87.1075 157.338 87.7436C157.122 88.3796 156.721 88.9371 156.188 89.3455C155.654 89.754 155.011 89.9949 154.341 90.0379C153.67 90.081 153.002 89.9241 152.421 89.5873C151.839 89.2504 151.371 88.7486 151.075 88.1455C150.779 87.5424 150.668 86.8649 150.757 86.1989C150.846 85.5329 151.13 84.9083 151.575 84.404C151.869 84.0692 152.226 83.7957 152.626 83.599C153.026 83.4024 153.461 83.2865 153.906 83.2579C154.351 83.2294 154.797 83.2888 155.218 83.4327C155.64 83.5766 156.03 83.8022 156.364 84.0967Z" fill="#D4E1F4"/>
<path d="M133.442 64.18C133.917 64.5972 134.258 65.1461 134.421 65.7571C134.585 66.368 134.563 67.0137 134.359 67.6124C134.156 68.2111 133.779 68.736 133.277 69.1205C132.775 69.5051 132.17 69.7321 131.539 69.7729C130.908 69.8137 130.279 69.6664 129.731 69.3496C129.184 69.0328 128.743 68.5608 128.464 67.9933C128.185 67.4258 128.08 66.7882 128.163 66.1613C128.247 65.5344 128.514 64.9463 128.932 64.4714C129.209 64.1558 129.545 63.8979 129.921 63.7124C130.298 63.5269 130.708 63.4175 131.126 63.3904C131.545 63.3634 131.966 63.4192 132.363 63.5547C132.76 63.6901 133.127 63.9026 133.442 64.18Z" fill="#D4E1F4"/>
<path d="M66.663 183.03L66.216 182.882L64.6753 162.063C64.5879 160.644 64.1806 159.262 63.4839 158.022C62.7872 156.782 61.8191 155.716 60.652 154.903L37.634 139.041C31.4032 134.339 27.1814 127.453 25.8157 119.767L17.2818 73.845C16.0377 72.2884 14.3732 71.1213 12.4858 70.4821C10.5984 69.8429 8.56724 69.7585 6.6333 70.2388L15.8373 119.767C17.2031 127.453 21.4249 134.339 27.6557 139.041L50.6737 154.903C51.8408 155.716 52.8088 156.782 53.5056 158.022C54.2023 159.262 54.6096 160.644 54.697 162.063L56.2376 182.882L56.6847 183.03C63.0178 185.158 69.738 185.882 76.3791 185.153C73.0732 184.798 69.8156 184.086 66.663 183.03Z" fill="#E0AFA9"/>
<path d="M158.982 61.6988C157.747 61.6748 156.53 61.3934 155.409 60.8724C154.288 60.3515 153.288 59.6025 152.473 58.6734C151.253 57.3952 150.401 55.8098 150.01 54.0861C149.619 52.3624 149.703 50.5649 150.252 48.885C151.554 45.1288 153.725 42.635 156.704 41.4723C161.685 39.5301 166.909 42.2861 167.129 42.4047C167.685 42.7067 168.098 43.2162 168.279 43.822C168.461 44.4277 168.395 45.0806 168.097 45.6381C167.799 46.1956 167.292 46.6126 166.687 46.798C166.083 46.9834 165.43 46.9223 164.87 46.6279C164.799 46.5908 161.31 44.8015 158.424 45.9426C156.822 46.576 155.595 48.0935 154.778 50.4528C154.219 52.0645 154.698 54.0179 155.997 55.4288C157.091 56.617 158.496 57.1343 159.761 56.8098C160.955 56.5037 162.01 55.3622 162.12 54.5842C162.144 54.4178 162.193 54.0722 161.374 53.5892C160.827 53.2663 160.43 52.7394 160.272 52.1242C160.113 51.5091 160.205 50.8562 160.528 50.3091C160.851 49.762 161.378 49.3656 161.993 49.2071C162.608 49.0486 163.261 49.1409 163.808 49.4638C166.083 50.8044 167.195 52.9163 166.864 55.2568C166.465 58.0687 163.979 60.6734 160.952 61.4493C160.309 61.615 159.647 61.6988 158.982 61.6988Z" fill="#6D7486"/>
<path d="M161.046 78.1208H160.975C160.345 78.1024 159.748 77.8365 159.313 77.3807C158.878 76.925 158.64 76.3161 158.65 75.686C158.631 74.9624 158.356 74.2689 157.874 73.7283C157.33 73.1943 156.43 72.93 155.218 72.9544C154.903 72.9596 154.591 72.9029 154.298 72.7874C154.006 72.6718 153.739 72.4998 153.513 72.2812C153.287 72.0625 153.106 71.8014 152.981 71.5129C152.855 71.2244 152.788 70.914 152.783 70.5995C152.778 70.285 152.835 69.9726 152.95 69.68C153.066 69.3874 153.238 69.1205 153.456 68.8944C153.675 68.6683 153.936 68.4875 154.225 68.3623C154.513 68.2371 154.823 68.17 155.138 68.1648C158.375 68.1113 160.275 69.3414 161.306 70.384C162.684 71.8473 163.448 73.7842 163.44 75.7946C163.422 76.4176 163.162 77.009 162.715 77.4434C162.268 77.8777 161.669 78.1207 161.046 78.1208Z" fill="#6D7486"/>
<path d="M145.507 64.4396C145.484 64.4396 145.46 64.4396 145.436 64.4396C144.806 64.4213 144.209 64.1555 143.774 63.6997C143.339 63.2439 143.101 62.635 143.111 62.0049C143.092 61.2812 142.817 60.5877 142.335 60.0471C141.792 59.5131 140.899 59.2489 139.679 59.2736C139.044 59.2842 138.431 59.042 137.974 58.6004C137.518 58.1588 137.255 57.5539 137.244 56.9187C137.234 56.2836 137.476 55.6703 137.918 55.2137C138.359 54.7571 138.964 54.4946 139.599 54.484C142.824 54.4321 144.737 55.6603 145.767 56.7028C147.145 58.1664 147.909 60.1033 147.901 62.1139C147.883 62.7367 147.623 63.3281 147.176 63.7624C146.729 64.1966 146.13 64.4396 145.507 64.4396Z" fill="#6D7486"/>
<path d="M142.418 83.4216C139.312 83.4216 137.465 82.221 136.458 81.2008C135.079 79.7374 134.315 77.8006 134.324 75.7902C134.338 75.155 134.604 74.5516 135.063 74.1127C135.291 73.8954 135.559 73.725 135.852 73.6113C136.146 73.4975 136.458 73.4427 136.773 73.4498C137.087 73.457 137.397 73.526 137.685 73.653C137.973 73.7799 138.233 73.9623 138.45 74.1898C138.668 74.4172 138.838 74.6852 138.952 74.9785C139.065 75.2718 139.12 75.5846 139.113 75.8991C139.133 76.6229 139.407 77.3165 139.889 77.8573C140.433 78.3909 141.323 78.6528 142.546 78.6308C142.86 78.6256 143.173 78.6823 143.465 78.7978C143.758 78.9133 144.025 79.0853 144.251 79.304C144.477 79.5227 144.658 79.7837 144.783 80.0723C144.908 80.3608 144.975 80.6712 144.98 80.9857C144.986 81.3002 144.929 81.6126 144.813 81.9052C144.698 82.1977 144.526 82.4647 144.307 82.6908C144.089 82.9168 143.827 83.0976 143.539 83.2228C143.25 83.348 142.94 83.4152 142.626 83.4204C142.555 83.4208 142.486 83.4216 142.418 83.4216Z" fill="#D3A9A3"/>
<path d="M124.985 47.0106L122 43.2648L121.968 43.2907C122.049 43.2181 122.122 43.1369 122.184 43.0484C121.922 42.492 121.884 41.856 122.078 41.2723C122.272 40.6885 122.683 40.2017 123.226 39.9128C123.769 39.624 124.402 39.5551 124.995 39.7206C125.587 39.8861 126.093 40.2732 126.408 40.8017C127.819 43.1658 126.659 45.6763 124.985 47.0106Z" fill="#D3A9A3"/>
<path d="M63.8186 180.485C63.2155 180.485 62.6349 180.256 62.1929 179.846C61.7509 179.436 61.4799 178.874 61.4342 178.272L60.5134 166.188C60.4872 165.873 60.5235 165.556 60.6203 165.255C60.7171 164.955 60.8724 164.676 61.0773 164.436C61.2822 164.195 61.5327 163.998 61.8142 163.854C62.0958 163.711 62.4029 163.625 62.7179 163.601C63.0329 163.577 63.3495 163.616 63.6495 163.715C63.9496 163.813 64.2271 163.971 64.466 164.177C64.705 164.384 64.9008 164.636 65.042 164.918C65.1833 165.201 65.2672 165.509 65.289 165.824L66.2098 177.908C66.2337 178.222 66.1956 178.537 66.0977 178.836C65.9998 179.135 65.844 179.412 65.6391 179.65C65.4343 179.889 65.1844 180.085 64.9038 180.227C64.6232 180.369 64.3174 180.454 64.0038 180.478C63.9415 180.483 63.8801 180.485 63.8186 180.485Z" fill="#F4F8FC"/>
<path d="M62.3607 160.771C61.7569 160.771 61.1757 160.542 60.7333 160.131C60.2909 159.72 60.0201 159.157 59.975 158.555L59.8932 157.452C59.8655 157.136 59.9008 156.818 59.9971 156.515C60.0934 156.213 60.2488 155.933 60.4543 155.691C60.6597 155.45 60.9111 155.251 61.1939 155.107C61.4767 154.964 61.7853 154.878 62.1016 154.854C62.4179 154.831 62.7358 154.87 63.0367 154.971C63.3376 155.071 63.6156 155.23 63.8545 155.439C64.0934 155.648 64.2884 155.902 64.4283 156.187C64.5681 156.471 64.6501 156.781 64.6693 157.098L64.7511 158.2C64.7981 158.834 64.5916 159.46 64.177 159.941C63.7624 160.422 63.1737 160.719 62.5403 160.766C62.48 160.769 62.4201 160.771 62.3607 160.771Z" fill="#F4F8FC"/>
<path d="M82.3641 108.227C75.5389 108.227 66.1421 106.251 56.9501 97.8895C56.7141 97.6788 56.5222 97.4234 56.3855 97.1381C56.2488 96.8528 56.17 96.5432 56.1536 96.2272C56.1372 95.9113 56.1836 95.5952 56.2901 95.2973C56.3966 94.9994 56.561 94.7255 56.774 94.4915C56.9869 94.2575 57.2441 94.068 57.5307 93.934C57.8172 93.8 58.1275 93.7241 58.4436 93.7106C58.7597 93.6972 59.0753 93.7466 59.3722 93.8558C59.6692 93.9651 59.9415 94.1321 60.1735 94.3472C69.0626 102.434 78.0818 103.727 84.0776 103.392C86.4411 103.263 88.7036 102.391 90.5427 100.901C92.3818 99.4108 93.7036 97.3782 94.3197 95.0928C98.921 78.0586 86.3311 72.0688 82.3629 70.6387C77.171 68.7675 73.1968 68.8402 70.5485 70.8558C66.2187 74.1518 65.8388 82.2802 66.0579 85.134C66.1065 85.7673 65.9015 86.3939 65.4881 86.8761C65.0746 87.3583 64.4866 87.6564 63.8533 87.705C63.22 87.7536 62.5933 87.5486 62.1112 87.1352C61.629 86.7218 61.3308 86.1337 61.2823 85.5004C61.2423 84.9751 60.3794 72.5781 67.6472 67.0449C71.6697 63.9819 77.1678 63.6746 83.9866 66.1329C91.2344 68.7448 96.2831 73.4933 98.5877 79.8654C100.982 86.4851 99.8382 93.0297 98.9433 96.3413C98.0658 99.5991 96.1823 102.497 93.5613 104.621C90.9403 106.746 87.7155 107.989 84.3466 108.174C83.7144 108.207 83.0518 108.227 82.3641 108.227Z" fill="#E2B0AA"/>
<path d="M191.608 48.5379C190.949 37.3422 176.884 39.6532 176.604 39.7011L169.559 47.3844C172.609 58.3726 177.239 61.4579 180.875 60.6756C183.146 60.1886 185.03 58.1969 185.896 55.6744C187.041 52.3616 191.891 53.3355 191.608 48.5379Z" fill="#867AF4"/>
<path d="M158.2 19.1257C153.395 19.2175 154.987 24.1388 151.846 25.6954C151.072 26.0766 150.357 26.5673 149.723 27.1522C145.356 31.1755 145.592 39.1502 162.307 41.1339L168.905 33.0874C168.905 33.0874 170.122 18.9021 158.2 19.1257Z" fill="#867AF4"/>
<path d="M176.604 39.7011C176.527 39.3595 176.344 39.0509 176.081 38.819L170.118 33.5704C169.783 33.2718 169.354 33.1009 168.905 33.0875C168.643 33.077 168.381 33.1201 168.136 33.2141C167.891 33.3081 167.668 33.4511 167.48 33.6343L162.607 39.1543C162.346 39.4057 162.176 39.7357 162.122 40.0935C162.068 40.4513 162.133 40.8169 162.307 41.134C162.399 41.3036 162.521 41.4551 162.667 41.581L168.781 46.9654C168.986 47.1458 169.226 47.2813 169.486 47.363C169.746 47.4447 170.021 47.4708 170.292 47.4395C170.563 47.4083 170.824 47.3204 171.059 47.1817C171.294 47.0429 171.497 46.8564 171.655 46.6341L176.337 41.0183C176.47 40.8293 176.563 40.6146 176.609 40.3878C176.655 40.1611 176.654 39.9272 176.604 39.7011Z" fill="#FF5A81"/>
</svg>
