<svg width="240" height="240" viewBox="0 0 240 240" fill="none" xmlns="http://www.w3.org/2000/svg">
<path d="M120 240C186.274 240 240 186.274 240 120C240 53.7258 186.274 0 120 0C53.7258 0 0 53.7258 0 120C0 186.274 53.7258 240 120 240Z" fill="#FAC176"/>
<path d="M71.7104 143.752C63.927 148.979 56.6164 154.877 49.8622 161.379C44.3252 167.811 40.516 175.546 38.7932 183.857C24.3689 165.7 16.5281 143.189 16.5518 120C16.5518 119.462 16.5518 118.924 16.5932 118.386C16.9242 129.228 24.0415 140.69 41.5863 140.69C51.681 141.091 61.7414 142.114 71.7104 143.752Z" fill="#802D40"/>
<path d="M219.641 92.3173C212.81 76.5426 197.272 66.3222 180.082 66.2952C162.892 66.2683 147.322 76.4399 140.441 92.1931C136.708 100.536 135.639 109.827 137.379 118.8C130.74 115.89 123.341 115.193 116.276 116.814C113.812 117.527 111.666 119.06 110.193 121.159C109.446 120.497 108.643 119.902 107.793 119.379C104.579 117.291 100.864 116.105 97.0344 115.945C96.4163 115.875 95.7942 115.847 95.1723 115.862H45.7241C41.5861 115.862 45.7241 99.3104 29.1723 99.3104C22.1792 99.3104 17.4206 106.635 16.6758 115.117C19.2056 60.8118 63.3719 17.7487 117.724 16.5931C118.469 16.5518 119.255 16.5518 120 16.5518C125.599 16.5492 131.189 16.992 136.717 17.8759C176.504 24.4095 208.869 53.4638 219.641 92.3173Z" fill="#802D40"/>
<path d="M161.851 214.535C167.927 208.459 173.32 201.734 177.931 194.483C180.766 188.644 182.691 182.407 183.641 175.986V175.945C183.972 174.166 184.262 172.552 184.552 171.062V171.021C184.906 167.915 186.239 165.002 188.359 162.703C188.957 162.173 189.625 161.728 190.345 161.379C200.814 156.124 214.179 147.848 219.31 136.552C221.543 129.448 222.891 122.096 223.324 114.662C223.407 116.441 223.448 118.221 223.448 120C223.447 160.929 199.292 198.001 161.851 214.535Z" fill="#802D40"/>
<path d="M124.138 94.5932C124.138 105.972 115.779 114.124 107.793 119.379C103.286 122.292 98.4527 124.667 93.3929 126.455C92.9671 126.601 92.5188 126.671 92.0687 126.662C90.2898 126.667 88.707 125.534 88.1377 123.848C87.4367 121.679 88.5936 119.347 90.7446 118.593C90.8274 118.552 93.4756 117.641 97.0343 115.945C104.441 112.303 115.862 105.021 115.862 94.5932C115.862 86.5656 112.386 83.4621 107.586 79.1587C99.4108 73.0965 94.7633 63.3832 95.1722 53.2138C94.8336 37.6342 103.659 23.3029 117.724 16.5931C118.469 16.5518 119.255 16.5518 120 16.5518C125.598 16.5492 131.189 16.992 136.717 17.8759L121.531 23.9587C110.21 29.2335 103.104 40.7292 103.448 53.2138C103.036 61.0496 106.697 68.5432 113.131 73.0345C120.12 77.9747 124.235 86.0346 124.138 94.5932Z" fill="#FB7B76"/>
<path d="M223.324 114.579V114.662C222.891 122.096 221.543 129.448 219.31 136.552C214.179 147.848 200.814 156.124 190.345 161.379C189.625 161.728 188.957 162.173 188.359 162.703C186.239 165.001 184.906 167.914 184.552 171.021V171.062C184.262 172.552 183.973 174.165 183.642 175.945V175.986C182.692 182.406 180.766 188.644 177.931 194.483C173.296 201.75 167.884 208.493 161.793 214.593C148.643 220.459 134.4 223.477 120 223.448C88.2901 223.458 58.3368 208.886 38.7726 183.931C40.49 175.592 44.307 167.83 49.8622 161.379C56.6164 154.877 63.9271 148.978 71.7105 143.752C61.7415 142.113 51.6811 141.091 41.5864 140.689C24.0415 140.689 16.9243 129.227 16.5933 118.386C16.5933 117.31 16.6346 116.193 16.676 115.117C17.4208 106.634 22.1795 99.3101 29.1726 99.3101C45.7243 99.3101 41.5864 115.862 45.7243 115.862H95.1726C100.665 115.688 106.024 117.578 110.193 121.158C111.667 119.059 113.813 117.527 116.276 116.814C123.341 115.193 130.741 115.889 137.379 118.8C135.639 109.827 136.708 100.536 140.442 92.1929C147.323 76.4397 162.892 66.268 180.082 66.295C197.273 66.3219 212.81 76.5423 219.642 92.317C219.658 92.39 219.686 92.4598 219.724 92.5239C221.729 99.7214 222.937 107.118 223.324 114.579Z" fill="#FDD7AD"/>
<path d="M188.359 162.703C186.239 165.002 184.906 167.915 184.552 171.021C181.299 166.61 176.948 163.129 171.931 160.924L138.828 144.372C137.396 143.776 136.417 142.429 136.294 140.883C136.17 139.337 136.921 137.851 138.239 137.035C139.558 136.218 141.223 136.207 142.552 137.007L175.655 153.559C180.407 155.815 184.711 158.913 188.359 162.703Z" fill="#F9C795"/>
<path d="M192.062 136.552C188.768 136.557 185.608 135.25 183.281 132.919C181.713 131.295 181.735 128.714 183.332 127.118C184.928 125.522 187.509 125.499 189.132 127.067C190.748 128.684 193.368 128.685 194.985 127.07C196.602 125.454 196.603 122.833 194.987 121.216C193.912 120.178 193.48 118.639 193.859 117.192C194.238 115.746 195.368 114.616 196.814 114.237C198.261 113.858 199.8 114.29 200.838 115.365C204.385 118.916 205.444 124.253 203.524 128.889C201.603 133.525 197.08 136.549 192.062 136.552Z" fill="#F9C795"/>
<path d="M154.258 122.872C153.356 122.247 132.062 107.615 115.051 112.87C109.385 114.556 105.123 119.247 103.986 125.048C102.29 132.497 104.599 141.741 110.503 152.077C109.208 155.661 107.839 158.743 107.483 159.455C103.862 166.345 92.6897 174.207 80.8676 178.142C79.4632 178.61 78.415 179.792 78.118 181.242C77.821 182.692 78.3203 184.191 79.4277 185.173C80.5351 186.155 82.0825 186.472 83.4869 186.004C97.5559 181.312 110.148 172.192 114.844 163.246C115.084 162.77 115.506 161.843 116.028 160.63C122.798 169.807 130.46 178.292 138.902 185.959C140.583 187.464 143.161 187.345 144.696 185.69C146.231 184.036 146.157 181.456 144.53 179.892C117.414 154.738 109.978 136.03 112.055 126.898C112.55 123.979 114.673 121.6 117.517 120.778C130.643 116.723 149.379 129.538 149.553 129.666C151.429 130.971 154.008 130.508 155.313 128.632C156.618 126.756 156.155 124.177 154.279 122.872H154.258Z" fill="#F9C795"/>
</svg>
